<svg width="26" height="30" viewBox="0 0 26 30" fill="none" xmlns="http://www.w3.org/2000/svg">
<path d="M18.0258 0.750003C18.6307 0.748582 19.1091 1.2186 19.1105 1.84528L19.1119 2.9135C23.0373 3.22114 25.6303 5.89595 25.6345 9.9979L25.65 22.0046C25.6556 26.4769 22.8459 29.2286 18.3423 29.2357L7.34144 29.25C2.86596 29.2557 0.021123 26.4384 0.0154953 21.9534L9.44404e-06 10.0876C-0.00560885 5.95862 2.49593 3.29093 6.4213 2.93059L6.41989 1.86237C6.41849 1.23569 6.88278 0.764249 7.50183 0.764249C8.12089 0.762825 8.58518 1.23284 8.58659 1.85953L8.58799 2.85653L16.9452 2.84513L16.9438 1.84813C16.9424 1.22145 17.4067 0.751431 18.0258 0.750003ZM18.5998 20.9734H18.5857C17.9385 20.9891 17.4194 21.5318 17.4334 22.1869C17.4348 22.8421 17.9568 23.3819 18.604 23.3962C19.2639 23.3947 19.7985 22.8521 19.7971 22.1827C19.7971 21.5133 19.2611 20.9734 18.5998 20.9734ZM7.00659 20.9749C6.3594 21.0034 5.8529 21.546 5.8543 22.2012C5.88385 22.8564 6.41849 23.3691 7.06568 23.3392C7.70021 23.3107 8.2053 22.768 8.17576 22.1129C8.16169 21.4719 7.63971 20.9734 7.00659 20.9749ZM12.8032 20.9677C12.156 20.9977 11.6509 21.5389 11.6509 22.1941C11.6805 22.8492 12.2151 23.3605 12.8623 23.3321C13.4954 23.3022 14.0019 22.7609 13.9724 22.1043C13.9583 21.4648 13.4363 20.9663 12.8032 20.9677ZM6.99955 15.8474C6.35236 15.8759 5.84727 16.4186 5.84867 17.0737C5.87682 17.7289 6.41286 18.2417 7.06005 18.2118C7.69318 18.1833 8.19827 17.6406 8.16872 16.9854C8.15465 16.3445 7.63409 15.846 6.99955 15.8474ZM12.7976 15.7976C12.1504 15.8261 11.6439 16.3687 11.6453 17.0239C11.6734 17.6791 12.2095 18.1904 12.8567 18.1619C13.4898 18.132 13.9949 17.5908 13.9667 16.9356C13.9513 16.2947 13.4307 15.7962 12.7976 15.7976ZM18.5942 15.8047C17.947 15.819 17.4405 16.3459 17.4419 17.0011V17.0168C17.4559 17.6719 17.9906 18.169 18.6392 18.1548C19.2723 18.1391 19.7774 17.5965 19.7633 16.9413C19.7338 16.3146 19.2259 15.8033 18.5942 15.8047ZM16.948 5.03853L8.59081 5.04993L8.59221 6.20217C8.59221 6.81604 8.12933 7.3003 7.51027 7.3003C6.89122 7.30172 6.42552 6.81889 6.42552 6.20502L6.42412 5.10832C3.68058 5.38321 2.16249 6.9955 2.1667 10.0848L2.16812 10.5277L23.4692 10.4992V10.0007C23.4087 6.93853 21.8723 5.33193 19.1147 5.09265L19.1161 6.18936C19.1161 6.8018 18.6392 7.28748 18.0342 7.28748C17.4151 7.2889 16.9494 6.80465 16.9494 6.1922L16.948 5.03853Z" fill="#07617D"/>
<circle cx="7.60121" cy="16.5833" r="1.05556" fill="#FFCC7A"/>
<circle cx="7.60121" cy="21.8611" r="1.05556" fill="#FFCC7A"/>
<circle cx="12.879" cy="16.5833" r="1.05556" fill="#FFCC7A"/>
<circle cx="12.879" cy="21.8611" r="1.05556" fill="#FFCC7A"/>
<circle cx="19.2123" cy="16.5833" r="1.05556" fill="#FFCC7A"/>
<circle cx="19.2123" cy="21.8611" r="1.05556" fill="#FFCC7A"/>
</svg>
