<svg width="17" height="21" viewBox="0 0 17 21" fill="none" xmlns="http://www.w3.org/2000/svg">
<g clip-path="url(#clip0_1126_893)">
<path d="M8.50001 20C12.7526 20 16.5 17 16.5 13C16.5 9 13.5 7 12.5 6C11.0939 4.5939 10.6521 2.74612 10.5254 1.4746C10.4552 0.770672 9.77593 0.271446 9.18639 0.662434C8.03352 1.42702 6.40375 2.98749 5.5 6C4.85747 8.14176 5.5 10 5.5 10C5.5 10 4.5 9.5 4 8C3.8353 7.5059 3.61635 6.90329 3.39675 6.31727C3.08071 5.47387 1.94066 5.48134 1.6629 6.33811C1.11497 8.0282 0.5 10.3031 0.5 12C0.5 17 4.24745 20 8.50001 20Z" fill="#07617D"/>
<path d="M7.49976 15.9383C9.97425 15.9383 12.7139 14.394 13.362 12.0307C13.4995 11.5295 14.2033 11.298 14.3433 11.7985C14.4457 12.1646 14.4999 12.5462 14.4999 12.9383C14.4999 15.6997 11.8136 17.9383 8.49986 17.9383C6.36198 17.9383 4.48525 17.0065 3.42256 15.6037C3.10871 15.1894 3.66857 14.8132 4.1203 15.0703C5.08273 15.618 6.24634 15.9383 7.49976 15.9383Z" fill="#FFCC7A"/>
</g>
<defs>
<clipPath id="clip0_1126_893">
<rect width="16" height="20.4385" fill="white" transform="translate(0.5)"/>
</clipPath>
</defs>
</svg>
