<svg width="21" height="19" viewBox="0 0 21 19" fill="none" xmlns="http://www.w3.org/2000/svg">
<g clip-path="url(#clip0_1126_878)">
<circle cx="12.5" cy="4.74609" r="4" fill="#FFCC7A"/>
<path d="M10.5 10.7461C7.18629 10.7461 4.5 13.4324 4.5 16.7461C4.5 17.8507 5.39543 18.7461 6.5 18.7461H18.5C19.6046 18.7461 20.5 17.8507 20.5 16.7461V15.7461C20.5 12.9847 18.2614 10.7461 15.5 10.7461H10.5Z" fill="#FFCC7A"/>
<path d="M5.5 10.8076C2.73858 10.8076 0.5 13.0462 0.5 15.8076V16.8076C0.5 17.9122 1.39543 18.8076 2.5 18.8076H14.5C15.6046 18.8076 16.5 17.9122 16.5 16.8076V15.8076C16.5 13.0462 14.2614 10.8076 11.5 10.8076H5.5Z" fill="#07617D"/>
<circle cx="8.5" cy="4.80762" r="4" fill="#07617D"/>
</g>
<defs>
<clipPath id="clip0_1126_878">
<rect width="20" height="19" fill="white" transform="translate(0.5)"/>
</clipPath>
</defs>
</svg>
