<svg width="24" height="27" viewBox="0 0 24 27" fill="none" xmlns="http://www.w3.org/2000/svg">
<path d="M22.6723 13.752L18.1008 17.4923C17.8777 17.6748 17.5851 17.7662 17.2928 17.7662C17.0005 17.7662 16.708 17.6748 16.4848 17.4923C16.0382 17.1269 16.0382 16.5352 16.4848 16.1701L19.1054 14.026H8.14993C7.51822 14.026 7.00707 13.6078 7.00707 13.0909C7.00707 12.5741 7.51822 12.1558 8.14993 12.1558H19.1054L16.4848 10.0117C16.0382 9.64636 16.0382 9.0547 16.4848 8.68956C16.9314 8.32442 17.6545 8.32418 18.1008 8.68956L22.6723 12.4298C23.1188 12.795 23.1188 13.3869 22.6723 13.752ZM15.0071 24.3117H3.57849C2.94791 24.3117 2.43563 23.8925 2.43563 23.3766V2.80519C2.43563 2.28927 2.94791 1.87013 3.57849 1.87013H15.0071C15.6388 1.87013 16.15 1.45192 16.15 0.935065C16.15 0.418208 15.6388 0 15.0071 0H3.57849C1.68791 0 0.149902 1.25836 0.149902 2.80519V23.3766C0.149902 24.9235 1.68791 26.1818 3.57849 26.1818H15.0071C15.6388 26.1818 16.15 25.7636 16.15 25.2468C16.15 24.7299 15.6388 24.3117 15.0071 24.3117Z" fill="#07617D"/>
</svg>
