<svg width="28" height="27" viewBox="0 0 28 27" fill="none" xmlns="http://www.w3.org/2000/svg">
<path d="M9.0972 0H1.1499C0.597618 0 0.149902 0.447715 0.149902 0.999999V11.7894C0.149902 12.3417 0.597618 12.7894 1.1499 12.7894H9.0972C9.64949 12.7894 10.0972 12.3417 10.0972 11.7894V1C10.0972 0.447715 9.64949 0 9.0972 0Z" fill="#07617D"/>
<path d="M26.1499 0H18.2026C17.6504 0 17.2026 0.447716 17.2026 1V6.10522C17.2026 6.6575 17.6504 7.10522 18.2026 7.10522H26.1499C26.7022 7.10522 27.1499 6.6575 27.1499 6.10521V1C27.1499 0.447715 26.7022 0 26.1499 0Z" fill="#07617D"/>
<path d="M26.1499 12.7895H18.2026C17.6504 12.7895 17.2026 13.2372 17.2026 13.7895V25.9999C17.2026 26.5522 17.6504 26.9999 18.2026 26.9999H26.1499C26.7022 26.9999 27.1499 26.5522 27.1499 25.9999V13.7895C27.1499 13.2372 26.7022 12.7895 26.1499 12.7895Z" fill="#FFCC7A"/>
<path d="M9.0972 19.8949H1.1499C0.597618 19.8949 0.149902 20.3426 0.149902 20.8949V26.0001C0.149902 26.5524 0.597618 27.0001 1.1499 27.0001H9.0972C9.64949 27.0001 10.0972 26.5524 10.0972 26.0001V20.8949C10.0972 20.3426 9.64949 19.8949 9.0972 19.8949Z" fill="#07617D"/>
</svg>
