<svg width="28" height="17" viewBox="0 0 28 17" fill="none" xmlns="http://www.w3.org/2000/svg">
<path d="M14 0.246094C8.47715 0.246094 4 4.72325 4 10.2461C4 12.5904 4.80672 14.7464 6.15769 16.4514C6.33752 16.6784 6.61507 16.8022 6.90463 16.8022H21.0954C21.3849 16.8022 21.6625 16.6784 21.8423 16.4514C23.1933 14.7464 24 12.5904 24 10.2461C24 4.72325 19.5228 0.246094 14 0.246094Z" fill="#07617D"/>
<path d="M19.2071 6.9532C19.5976 6.56268 19.5976 5.92951 19.2071 5.53899C18.8166 5.14846 18.1834 5.14846 17.7929 5.53899L14.518 8.81384C14.3528 8.76965 14.1792 8.74609 14 8.74609C12.8954 8.74609 12 9.64152 12 10.7461C12 11.8507 12.8954 12.7461 14 12.7461C15.1046 12.7461 16 11.8507 16 10.7461C16 10.5669 15.9764 10.3933 15.9323 10.2281L19.2071 6.9532Z" fill="#FFCC7A"/>
<line x1="0.5" y1="16.5" x2="27.5" y2="16.5" stroke="#FFCC7A" stroke-linecap="round"/>
</svg>
