<svg width="16" height="16" viewBox="0 0 16 16" fill="none" xmlns="http://www.w3.org/2000/svg">
<path d="M14.964 11.4758V13.5822C14.9647 13.7777 14.9247 13.9713 14.8464 14.1504C14.768 14.3296 14.6531 14.4904 14.509 14.6226C14.3649 14.7548 14.1948 14.8555 14.0096 14.9181C13.8244 14.9807 13.6281 15.004 13.4333 14.9864C11.2728 14.7516 9.1974 14.0134 7.37398 12.8309C5.67752 11.7529 4.23922 10.3146 3.16122 8.61813C1.97462 6.78643 1.23617 4.70097 1.0057 2.5307C0.988153 2.33654 1.01123 2.14085 1.07345 1.9561C1.13568 1.77134 1.23569 1.60157 1.36713 1.45759C1.49856 1.3136 1.65854 1.19857 1.83687 1.1198C2.0152 1.04103 2.20798 1.00025 2.40293 1.00007H4.50931C4.85005 0.996714 5.18039 1.11738 5.43875 1.33957C5.69711 1.56176 5.86587 1.87032 5.91356 2.20772C6.00246 2.88181 6.16734 3.54368 6.40504 4.1807C6.49951 4.432 6.51996 4.70512 6.46396 4.9677C6.40796 5.23027 6.27786 5.47128 6.08909 5.66218L5.19739 6.55388C6.1969 8.31168 7.65234 9.76712 9.41014 10.7666L10.3018 9.87494C10.4927 9.68616 10.7338 9.55606 10.9963 9.50007C11.2589 9.44407 11.532 9.46451 11.7833 9.55898C12.4203 9.79668 13.0822 9.96156 13.7563 10.0505C14.0974 10.0986 14.4089 10.2704 14.6315 10.5332C14.8542 10.796 14.9725 11.1314 14.964 11.4758Z" stroke="#D5E5F4" stroke-linecap="round" stroke-linejoin="round"/>
<path d="M9.38306 1C10.8142 1.15079 12.151 1.78554 13.1723 2.79925C14.1937 3.81297 14.8385 5.14494 15.0001 6.57488" stroke="#D5E5F4" stroke-linecap="round" stroke-linejoin="round"/>
<path d="M9.38306 3.8085C10.0736 3.94467 10.7073 4.28526 11.2018 4.78608C11.6964 5.28689 12.029 5.9248 12.1565 6.617" stroke="#D5E5F4" stroke-linecap="round" stroke-linejoin="round"/>
</svg>
