<svg width="17" height="23" viewBox="0 0 17 23" fill="none" xmlns="http://www.w3.org/2000/svg">
<g clip-path="url(#clip0_1126_906)">
<path d="M3.5 10.9385H4.6802C5.15688 10.9385 5.56729 11.2749 5.66078 11.7424L6.5 15.9385L2.0547 18.902C1.39015 19.345 0.5 18.8687 0.5 18.07V13.9385C0.5 12.2816 1.84315 10.9385 3.5 10.9385Z" fill="#FFCC7A"/>
<path d="M13.5 10.9385H12.3198C11.8431 10.9385 11.4327 11.2749 11.3392 11.7424L10.5 15.9385L14.9453 18.902C15.6099 19.345 16.5 18.8687 16.5 18.07V13.9385C16.5 12.2816 15.1569 10.9385 13.5 10.9385Z" fill="#FFCC7A"/>
<path d="M9.6667 18.9385H7.33475C6.86108 18.9385 6.44832 19.2765 6.48802 19.7485C6.55055 20.4919 6.90118 21.531 8.30492 21.8937C8.43275 21.9268 8.56869 21.9268 8.69652 21.8937C10.1003 21.531 10.4509 20.4919 10.5134 19.7485C10.5531 19.2765 10.1404 18.9385 9.6667 18.9385Z" fill="#FFCC7A"/>
<path d="M3.49995 7C4.2498 4.75067 6.68608 2.22024 7.85835 1.09474C8.21974 0.747773 8.78026 0.747773 9.14165 1.09474C10.3139 2.22024 12.7502 4.75066 13.4999 7C14.2732 9.31976 13.3307 13.4868 12.6286 15.9724C12.2824 17.198 11.1476 18 9.87406 18H7.11721C5.84782 18 4.71578 17.2032 4.3678 15.9824C3.66224 13.5072 2.71616 9.35112 3.49995 7Z" fill="#07617D"/>
<circle cx="8.5" cy="8.93848" r="2" fill="#FFCC7A"/>
</g>
<defs>
<clipPath id="clip0_1126_906">
<rect width="16" height="22" fill="white" transform="translate(0.5 0.438477)"/>
</clipPath>
</defs>
</svg>
