<svg width="66" height="20" viewBox="0 0 66 20" fill="none" xmlns="http://www.w3.org/2000/svg">
<path fill-rule="evenodd" clip-rule="evenodd" d="M1 18.6076L4.20002 11.352L7.6938 8.78977H10.7352L14.2877 6.90187L15.8001 3.48386L18.2486 6.90187L19.4001 11.0457L23.0002 8.78977L24.8002 5.0924L26.4002 8.78977L29.5908 5.0924L32.2721 3.48386L33.4002 6.90187L35.4646 8.21519H38.7753L41.0128 5.0924L43.6808 3.48386L47.3296 1L50.2004 2.58158L52.5223 3.48386L56.4606 5.0924L58.0727 3.48386L61.913 5.0924V2.58158L65.0005 3.48386V18.0636L1 18.6076Z" fill="url(#paint0_linear_3093_284)"/>
<path d="M1 18.6076L4.20002 11.352L7.6938 8.78977H10.7352L14.2877 6.90187L15.8001 3.48386L18.2486 6.90187L19.4001 11.0457L23.0002 8.78977L24.8002 5.0924L26.4002 8.78977L29.5908 5.0924L32.2721 3.48386L33.4002 6.90187L35.4646 8.21519H38.7753L41.0128 5.0924L43.6808 3.48386L47.3296 1L50.2004 2.58158L52.5223 3.48386L56.4606 5.0924L58.0727 3.48386L61.913 5.0924V2.58158L65.0005 3.48386" stroke="#00B42D" stroke-linecap="square"/>
<defs>
<linearGradient id="paint0_linear_3093_284" x1="1" y1="1" x2="1" y2="18.6076" gradientUnits="userSpaceOnUse">
<stop stop-color="#B5F8C6" stop-opacity="0.378797"/>
<stop offset="1" stop-color="white"/>
</linearGradient>
</defs>
</svg>
